# xmcd CD database file
#
# Track frame offsets:
#	150
#	33861
#	50081
#	72161
#	90885
#	121344
#	140466
#	170810
#	203378
#	231566
#	251634
#	278703
#	311238
#
# Disc length: 4509 seconds
#
# Revision: 0
# Processed by: cddbd v1.5.2PL0 Copyright (c) Steve Scherf et al.
# Submitted via: CDex 1.99.1
#
DISCID=b8119b0d
DTITLE=The Terry Hanck Band - From Roadhouse To Your House - Live
DYEAR=2015
DGENRE=Blues
TTITLE0=Good Good Rockin' Goin' On
TTITLE1=Flatfoot Sam
TTITLE2=Junior's Walk
TTITLE3=Whatcha Gonna Do When Your Baby Leaves You
TTITLE4=Smilin' Through My Tears
TTITLE5=I Don't Love You No More (I Don't Care About You)
TTITLE6=Ain't That Just Like A Woman
TTITLE7=Can I Change My Mind
TTITLE8=Octavate'n
TTITLE9=Live To Love
TTITLE10=Peace Of Mind
TTITLE11=Slip Away
TTITLE12=Cupid Must Be Stupid
EXTD=YEAR: 2015
EXTT0=
EXTT1=
EXTT2=
EXTT3=
EXTT4=
EXTT5=
EXTT6=
EXTT7=
EXTT8=
EXTT9=
EXTT10=
EXTT11=
EXTT12=
PLAYORDER=
